<?xml version="1.0" encoding="utf-8"?>
<!-- Generator: Adobe Illustrator 26.0.1, SVG Export Plug-In . SVG Version: 6.00 Build 0)  -->
<svg version="1.1" id="Layer_1" xmlns="http://www.w3.org/2000/svg" xmlns:xlink="http://www.w3.org/1999/xlink" x="0px" y="0px"
	 viewBox="0 0 144 144" style="enable-background:new 0 0 144 144;" xml:space="preserve">
<style type="text/css">
	.st0{fill:none;stroke:#FFFFFF;stroke-width:5;stroke-miterlimit:10;}
	.st1{fill:#FFFFFF;stroke:#FFFFFF;stroke-width:5;stroke-miterlimit:10;}
	.st2{fill:none;stroke:#1D1D1B;stroke-width:5;stroke-miterlimit:10;}
</style>
<g id="Læg_i_kurv">
	<path class="st0" d="M116.9,113H26.4L9,45.4h126L116.9,113z"/>
	<path class="st0" d="M49.5,43.5c0-11.7,10.3-21.1,23-21.1s23,9.5,23,21.1"/>
	<ellipse class="st1" cx="113" cy="103.4" rx="14.3" ry="14.6"/>
	<line class="st2" x1="113" y1="94.6" x2="113" y2="112.2"/>
	<line class="st2" x1="121.7" y1="103.4" x2="104.4" y2="103.4"/>
	<path class="st0" d="M46.8,98.9c-0.2,0-0.4-0.2-0.5-0.4L38,64.8c-0.1-0.2,0.1-0.5,0.3-0.6s0.5,0.1,0.6,0.3l8.4,33.8
		c0.1,0.2-0.1,0.5-0.3,0.6c0,0,0,0,0,0L46.8,98.9z"/>
	<line class="st0" x1="38.4" y1="64.7" x2="46.8" y2="98.5"/>
	<path class="st0" d="M97.2,98.9h-0.1c-0.2-0.1-0.4-0.3-0.3-0.6c0,0,0,0,0,0l8.4-33.8c0.1-0.2,0.3-0.4,0.6-0.3s0.4,0.3,0.3,0.6
		l-8.4,33.8C97.6,98.8,97.4,98.9,97.2,98.9z"/>
	<line class="st0" x1="105.6" y1="64.7" x2="97.2" y2="98.5"/>
	<path class="st0" d="M72,98.9c-0.3,0-0.5-0.2-0.5-0.5l0,0V64.7c0-0.3,0.2-0.5,0.5-0.5s0.5,0.2,0.5,0.5v33.8
		C72.5,98.7,72.3,98.9,72,98.9L72,98.9z"/>
	<line class="st0" x1="72" y1="64.7" x2="72" y2="98.5"/>
</g>
</svg>
