<svg xmlns="http://www.w3.org/2000/svg" viewBox="0 0 144 144"><defs><style>.cls-1{fill:none;stroke:#000;stroke-miterlimit:10;stroke-width:5px;}</style></defs><g id="Løbelængde"><polygon class="cls-1" points="134.91 121.94 8.61 121.94 8.61 59.58 24.39 59.58 134.91 59.58 134.91 121.94"/><line class="cls-1" x1="24.39" y1="80.36" x2="24.39" y2="59.58"/><line class="cls-1" x1="55.97" y1="80.36" x2="55.97" y2="59.58"/><line class="cls-1" x1="87.55" y1="80.36" x2="87.55" y2="59.58"/><line class="cls-1" x1="119.12" y1="80.36" x2="119.12" y2="59.58"/><line class="cls-1" x1="103.33" y1="90.76" x2="103.33" y2="59.58"/><line class="cls-1" x1="71.76" y1="90.76" x2="71.76" y2="59.58"/><line class="cls-1" x1="40.18" y1="90.76" x2="40.18" y2="59.58"/><polyline class="cls-1" points="32.29 18 8.61 33.59 32.29 49.18"/><polyline class="cls-1" points="111.07 49.18 134.91 33.83 111.39 18"/><line class="cls-1" x1="9.25" y1="33.81" x2="135" y2="33.81"/><path d="M119.5,108a2.5,2.5,0,1,0,2.5,2.5,2.5,2.5,0,0,0-2.5-2.5Z"/></g></svg>