<?xml version="1.0" standalone="no"?>
<!DOCTYPE svg PUBLIC "-//W3C//DTD SVG 20010904//EN"
 "http://www.w3.org/TR/2001/REC-SVG-20010904/DTD/svg10.dtd">
<svg version="1.0" xmlns="http://www.w3.org/2000/svg"
 width="800.000000pt" height="800.000000pt" viewBox="0 0 800.000000 800.000000"
 preserveAspectRatio="xMidYMid meet">

<g transform="translate(0.000000,800.000000) scale(0.100000,-0.100000)"
fill="#000000" stroke="none">
<path d="M3773 6883 c-37 -4 -47 -10 -71 -46 -72 -106 -171 -297 -395 -757
-164 -337 -294 -569 -405 -725 -51 -70 -235 -296 -310 -379 -42 -48 -58 -72
-50 -77 7 -3 54 -12 103 -18 50 -7 152 -24 229 -37 76 -13 144 -20 151 -16 19
11 111 118 190 223 153 200 301 445 525 864 250 470 419 762 516 896 19 26 34
51 34 56 0 6 -24 13 -52 17 -55 6 -391 5 -465 -1z"/>
<path d="M4313 6783 c-116 -170 -238 -379 -423 -723 -362 -675 -514 -923 -715
-1164 -36 -43 -65 -81 -65 -85 0 -4 33 -14 73 -21 39 -7 137 -28 216 -46 79
-19 145 -34 146 -34 7 0 144 189 211 290 133 198 253 409 494 860 235 441 322
593 463 813 38 59 68 109 66 111 -10 9 -369 86 -401 86 -3 0 -33 -39 -65 -87z"/>
<path d="M3510 6844 c-486 -81 -1004 -330 -1379 -663 -141 -125 -371 -370
-371 -395 0 -10 64 36 344 252 425 327 586 427 896 555 131 54 328 111 557
162 12 3 35 27 52 55 36 59 41 57 -99 34z"/>
<path d="M4791 6678 c-129 -197 -298 -494 -496 -868 -262 -495 -460 -827 -624
-1044 -29 -38 -50 -70 -48 -73 3 -2 63 -21 135 -43 72 -22 154 -48 181 -59 62
-23 52 -31 158 126 151 223 261 414 573 998 218 407 326 594 472 812 l68 102
-53 24 c-74 35 -236 94 -277 102 -35 6 -35 5 -89 -77z"/>
<path d="M3495 6673 c-96 -20 -308 -78 -367 -99 -114 -41 -314 -132 -413 -187
-163 -91 -293 -184 -669 -475 -88 -68 -217 -162 -288 -209 -122 -83 -129 -89
-178 -169 -101 -164 -218 -399 -206 -411 3 -3 34 -14 70 -24 l66 -18 52 36
c68 47 194 142 496 375 484 373 678 495 1092 685 36 17 87 38 113 48 l48 18
107 211 c59 116 109 214 110 219 4 7 0 7 -33 0z"/>
<path d="M5237 6554 c-120 -165 -304 -480 -562 -964 -274 -512 -382 -700 -541
-934 -41 -60 -73 -110 -71 -112 2 -2 64 -28 139 -58 74 -30 156 -64 181 -75
25 -12 48 -21 50 -21 6 0 108 157 194 300 84 139 189 329 353 635 271 507 404
737 572 987 32 48 58 89 58 92 0 7 -203 127 -277 165 l-63 31 -33 -46z"/>
<path d="M5556 6203 c-142 -217 -247 -400 -501 -873 -120 -223 -245 -452 -278
-510 -72 -126 -245 -409 -264 -431 -7 -8 -13 -20 -13 -25 0 -5 35 -27 78 -48
42 -21 119 -63 170 -92 52 -30 99 -54 106 -54 6 0 50 62 98 138 84 134 248
416 248 426 0 3 15 31 34 63 18 32 88 159 153 283 245 461 409 746 535 934
l60 88 -34 35 c-45 48 -264 223 -278 223 -6 0 -57 -71 -114 -157z"/>
<path d="M3135 6099 c-389 -178 -560 -287 -1065 -679 -165 -127 -410 -313
-459 -347 -2 -2 -2 -6 2 -9 7 -7 300 -69 372 -79 l51 -6 204 153 c241 181 493
351 649 439 131 72 114 50 277 372 59 117 99 207 92 207 -7 -1 -62 -24 -123
-51z"/>
<path d="M6005 5949 l-70 -29 -112 -188 c-142 -239 -216 -373 -209 -380 17
-17 785 201 801 228 9 15 -158 239 -264 353 -24 26 -51 47 -60 46 -9 0 -47
-14 -86 -30z"/>
<path d="M6285 5466 c-159 -55 -375 -116 -592 -167 l-132 -31 -49 -91 c-27
-51 -86 -161 -131 -245 -46 -85 -81 -155 -79 -157 3 -4 212 39 448 91 281 62
628 162 843 244 55 21 58 24 52 49 -7 30 -122 260 -160 321 -14 22 -31 39 -38
39 -6 -1 -79 -25 -162 -53z"/>
<path d="M2805 5446 c-219 -136 -684 -470 -672 -483 3 -2 47 -11 98 -18 52 -8
119 -19 149 -24 l54 -9 64 62 c107 102 422 498 422 530 0 12 -17 3 -115 -58z"/>
<path d="M6525 5020 c-186 -69 -301 -103 -550 -165 -189 -47 -301 -72 -665
-149 l-55 -12 -83 -144 c-46 -80 -122 -207 -169 -284 -98 -158 -97 -169 6
-129 241 93 508 165 986 263 337 70 521 115 698 172 l128 42 -6 38 c-9 52 -58
220 -90 310 -15 40 -29 81 -32 91 -7 24 -20 21 -168 -33z"/>
<path d="M1323 5013 c-34 -80 -109 -331 -101 -338 7 -6 148 -45 269 -74 159
-38 501 -100 774 -141 969 -145 1277 -217 1749 -406 455 -183 719 -335 1361
-781 475 -330 736 -493 996 -624 98 -49 123 -58 135 -48 17 14 164 311 164
330 0 8 -70 50 -156 93 -272 138 -558 317 -1029 645 -473 329 -719 483 -990
617 -185 91 -525 231 -700 287 -268 86 -666 171 -1140 242 -60 9 -164 25 -230
36 -132 21 -297 46 -390 59 -123 18 -566 113 -676 146 -12 3 -22 -9 -36 -43z"/>
<path d="M1207 4603 c-19 -30 -63 -371 -50 -384 12 -11 275 -75 446 -109 81
-16 309 -55 505 -85 1064 -167 1259 -212 1738 -403 413 -165 646 -295 1154
-644 653 -448 854 -576 1100 -700 l135 -68 36 39 c43 48 189 261 189 277 0 6
-44 32 -97 58 -229 110 -564 317 -933 576 -691 484 -986 655 -1445 838 -472
188 -702 242 -1710 397 -378 59 -621 104 -850 160 -99 24 -187 46 -196 50 -10
3 -19 3 -22 -2z"/>
<path d="M6745 4523 c-161 -55 -386 -111 -800 -198 -305 -65 -423 -92 -579
-136 -140 -40 -324 -104 -340 -119 -4 -5 50 -47 122 -94 72 -47 192 -129 269
-182 95 -66 144 -94 158 -91 11 3 87 30 170 61 148 56 441 154 645 216 58 17
123 38 145 45 22 7 109 34 193 61 l152 48 0 56 c0 60 -36 335 -45 351 -7 11
-4 12 -90 -18z"/>
<path d="M1147 4143 c-9 -8 -9 -149 0 -276 7 -118 -16 -102 243 -159 240 -51
264 -56 790 -138 901 -140 1107 -191 1590 -388 389 -158 654 -313 1260 -735
320 -223 561 -377 768 -491 116 -64 125 -68 149 -55 31 17 243 239 243 254 0
6 -41 31 -90 55 -202 97 -455 252 -803 491 -841 576 -1012 677 -1472 862 -454
183 -698 241 -1550 372 -509 77 -816 135 -1020 190 -100 28 -99 28 -108 18z"/>
<path d="M6775 4034 c-55 -18 -239 -76 -408 -129 -290 -90 -596 -194 -696
-237 l-44 -19 119 -82 c65 -45 164 -111 218 -146 l99 -64 116 33 c250 71 620
205 667 242 23 17 58 419 38 430 -5 2 -54 -10 -109 -28z"/>
<path d="M1166 3659 c3 -24 13 -80 21 -124 8 -44 19 -103 24 -132 5 -28 15
-69 22 -90 l12 -38 145 -37 c175 -45 425 -91 865 -158 689 -106 927 -163 1289
-306 392 -156 655 -305 1183 -676 285 -199 524 -351 736 -467 l78 -43 57 37
c116 76 272 200 272 215 0 5 -32 25 -70 44 -183 94 -437 257 -945 607 -518
358 -753 491 -1155 653 -429 173 -692 236 -1475 356 -491 75 -966 164 -1048
196 -16 6 -17 2 -11 -37z"/>
<path d="M6807 3544 c-68 -37 -353 -140 -552 -199 -49 -15 -94 -31 -99 -35 -4
-5 50 -42 120 -84 172 -102 413 -221 424 -210 17 19 92 264 123 409 34 152 34
146 -16 119z"/>
<path d="M1294 3103 c48 -143 166 -413 192 -442 5 -6 245 -48 344 -60 52 -7
109 -14 125 -16 17 -3 136 -16 265 -30 568 -62 812 -111 1140 -233 330 -122
520 -226 1068 -585 279 -184 429 -275 574 -348 l77 -39 90 40 c115 52 301 151
301 160 0 4 -53 37 -117 72 -154 85 -359 217 -613 393 -569 395 -806 534
-1140 670 -418 170 -666 229 -1460 351 -398 60 -596 97 -782 144 -42 11 -81
20 -87 20 -5 0 5 -44 23 -97z"/>
<path d="M1711 2476 c-45 -45 -62 -69 -57 -81 8 -21 132 -184 190 -250 l43
-50 107 102 c58 56 153 141 211 189 57 49 103 90 101 91 -3 4 -497 63 -520 63
-6 0 -40 -29 -75 -64z"/>
<path d="M2268 2355 c-165 -138 -328 -292 -328 -311 0 -12 260 -255 281 -262
5 -2 49 34 97 80 142 136 332 295 562 472 l65 50 -60 12 c-55 12 -455 74 -473
74 -4 0 -69 -52 -144 -115z"/>
<path d="M2910 2273 c-255 -192 -612 -500 -618 -533 -1 -9 23 -33 55 -55 104
-73 288 -185 303 -185 33 0 416 316 674 555 156 145 163 153 145 159 -8 2 -68
25 -134 49 -102 39 -287 97 -305 97 -3 0 -57 -39 -120 -87z"/>
<path d="M3440 2074 c-237 -218 -468 -416 -615 -529 -49 -38 -94 -72 -99 -76
-16 -14 216 -118 391 -174 l83 -27 77 69 c159 140 649 577 671 598 l24 22 -99
56 c-140 79 -295 157 -313 157 -9 0 -63 -43 -120 -96z"/>
<path d="M3903 1807 c-249 -218 -618 -549 -620 -555 -2 -4 30 -15 70 -25 203
-49 448 -77 666 -77 l116 1 95 161 c52 88 120 199 152 247 45 67 55 89 45 98
-24 24 -381 253 -394 253 -7 0 -66 -46 -130 -103z"/>
<path d="M4422 1503 c-79 -122 -202 -328 -202 -339 0 -19 303 25 495 72 94 24
124 33 233 71 l43 15 -108 60 c-59 33 -169 98 -245 144 -75 46 -138 84 -141
84 -3 0 -36 -48 -75 -107z"/>
</g>
</svg>
