<?xml version="1.0" encoding="utf-8"?>
<!-- Generator: Adobe Illustrator 26.0.1, SVG Export Plug-In . SVG Version: 6.00 Build 0)  -->
<svg version="1.1" id="Layer_1" xmlns="http://www.w3.org/2000/svg" xmlns:xlink="http://www.w3.org/1999/xlink" x="0px" y="0px"
	 viewBox="0 0 800 800" style="enable-background:new 0 0 800 800;" xml:space="preserve">
<style type="text/css">
	.st0{fill:#FFFFFF;}
</style>
<g transform="translate(0.000000,800.000000) scale(0.100000,-0.100000)">
	<path class="st0" d="M3773,6883c-37-4-47-10-71-46c-72-106-171-297-395-757c-164-337-294-569-405-725c-51-70-235-296-310-379
		c-42-48-58-72-50-77c7-3,54-12,103-18c50-7,152-24,229-37c76-13,144-20,151-16c19,11,111,118,190,223c153,200,301,445,525,864
		c250,470,419,762,516,896c19,26,34,51,34,56c0,6-24,13-52,17C4183,6890,3847,6889,3773,6883z"/>
	<path class="st0" d="M4313,6783c-116-170-238-379-423-723c-362-675-514-923-715-1164c-36-43-65-81-65-85s33-14,73-21
		c39-7,137-28,216-46c79-19,145-34,146-34c7,0,144,189,211,290c133,198,253,409,494,860c235,441,322,593,463,813
		c38,59,68,109,66,111c-10,9-369,86-401,86C4375,6870,4345,6831,4313,6783z"/>
	<path class="st0" d="M3510,6844c-486-81-1004-330-1379-663c-141-125-371-370-371-395c0-10,64,36,344,252c425,327,586,427,896,555
		c131,54,328,111,557,162c12,3,35,27,52,55C3645,6869,3650,6867,3510,6844z"/>
	<path class="st0" d="M4791,6678c-129-197-298-494-496-868c-262-495-460-827-624-1044c-29-38-50-70-48-73c3-2,63-21,135-43
		s154-48,181-59c62-23,52-31,158,126c151,223,261,414,573,998c218,407,326,594,472,812l68,102l-53,24c-74,35-236,94-277,102
		C4845,6761,4845,6760,4791,6678z"/>
	<path class="st0" d="M3495,6673c-96-20-308-78-367-99c-114-41-314-132-413-187c-163-91-293-184-669-475c-88-68-217-162-288-209
		c-122-83-129-89-178-169c-101-164-218-399-206-411c3-3,34-14,70-24l66-18l52,36c68,47,194,142,496,375c484,373,678,495,1092,685
		c36,17,87,38,113,48l48,18l107,211c59,116,109,214,110,219C3532,6680,3528,6680,3495,6673z"/>
	<path class="st0" d="M5237,6554c-120-165-304-480-562-964c-274-512-382-700-541-934c-41-60-73-110-71-112s64-28,139-58
		c74-30,156-64,181-75c25-12,48-21,50-21c6,0,108,157,194,300c84,139,189,329,353,635c271,507,404,737,572,987c32,48,58,89,58,92
		c0,7-203,127-277,165l-63,31L5237,6554z"/>
	<path class="st0" d="M5556,6203c-142-217-247-400-501-873c-120-223-245-452-278-510c-72-126-245-409-264-431c-7-8-13-20-13-25
		s35-27,78-48c42-21,119-63,170-92c52-30,99-54,106-54c6,0,50,62,98,138c84,134,248,416,248,426c0,3,15,31,34,63
		c18,32,88,159,153,283c245,461,409,746,535,934l60,88l-34,35c-45,48-264,223-278,223C5664,6360,5613,6289,5556,6203z"/>
	<path class="st0" d="M3135,6099c-389-178-560-287-1065-679c-165-127-410-313-459-347c-2-2-2-6,2-9c7-7,300-69,372-79l51-6l204,153
		c241,181,493,351,649,439c131,72,114,50,277,372c59,117,99,207,92,207C3251,6149,3196,6126,3135,6099z"/>
	<path class="st0" d="M6005,5949l-70-29l-112-188c-142-239-216-373-209-380c17-17,785,201,801,228c9,15-158,239-264,353
		c-24,26-51,47-60,46C6082,5979,6044,5965,6005,5949z"/>
	<path class="st0" d="M6285,5466c-159-55-375-116-592-167l-132-31l-49-91c-27-51-86-161-131-245c-46-85-81-155-79-157
		c3-4,212,39,448,91c281,62,628,162,843,244c55,21,58,24,52,49c-7,30-122,260-160,321c-14,22-31,39-38,39
		C6441,5518,6368,5494,6285,5466z"/>
	<path class="st0" d="M2805,5446c-219-136-684-470-672-483c3-2,47-11,98-18c52-8,119-19,149-24l54-9l64,62c107,102,422,498,422,530
		C2920,5516,2903,5507,2805,5446z"/>
	<path class="st0" d="M6525,5020c-186-69-301-103-550-165c-189-47-301-72-665-149l-55-12l-83-144c-46-80-122-207-169-284
		c-98-158-97-169,6-129c241,93,508,165,986,263c337,70,521,115,698,172l128,42l-6,38c-9,52-58,220-90,310c-15,40-29,81-32,91
		C6686,5077,6673,5074,6525,5020z"/>
	<path class="st0" d="M1323,5013c-34-80-109-331-101-338c7-6,148-45,269-74c159-38,501-100,774-141c969-145,1277-217,1749-406
		c455-183,719-335,1361-781c475-330,736-493,996-624c98-49,123-58,135-48c17,14,164,311,164,330c0,8-70,50-156,93
		c-272,138-558,317-1029,645c-473,329-719,483-990,617c-185,91-525,231-700,287c-268,86-666,171-1140,242c-60,9-164,25-230,36
		c-132,21-297,46-390,59c-123,18-566,113-676,146C1347,5059,1337,5047,1323,5013z"/>
	<path class="st0" d="M1207,4603c-19-30-63-371-50-384c12-11,275-75,446-109c81-16,309-55,505-85c1064-167,1259-212,1738-403
		c413-165,646-295,1154-644c653-448,854-576,1100-700l135-68l36,39c43,48,189,261,189,277c0,6-44,32-97,58c-229,110-564,317-933,576
		c-691,484-986,655-1445,838c-472,188-702,242-1710,397c-378,59-621,104-850,160c-99,24-187,46-196,50
		C1219,4608,1210,4608,1207,4603z"/>
	<path class="st0" d="M6745,4523c-161-55-386-111-800-198c-305-65-423-92-579-136c-140-40-324-104-340-119c-4-5,50-47,122-94
		s192-129,269-182c95-66,144-94,158-91c11,3,87,30,170,61c148,56,441,154,645,216c58,17,123,38,145,45s109,34,193,61l152,48v56
		c0,60-36,335-45,351C6828,4552,6831,4553,6745,4523z"/>
	<path class="st0" d="M1147,4143c-9-8-9-149,0-276c7-118-16-102,243-159c240-51,264-56,790-138c901-140,1107-191,1590-388
		c389-158,654-313,1260-735c320-223,561-377,768-491c116-64,125-68,149-55c31,17,243,239,243,254c0,6-41,31-90,55
		c-202,97-455,252-803,491c-841,576-1012,677-1472,862c-454,183-698,241-1550,372c-509,77-816,135-1020,190
		C1155,4153,1156,4153,1147,4143z"/>
	<path class="st0" d="M6775,4034c-55-18-239-76-408-129c-290-90-596-194-696-237l-44-19l119-82c65-45,164-111,218-146l99-64l116,33
		c250,71,620,205,667,242c23,17,58,419,38,430C6879,4064,6830,4052,6775,4034z"/>
	<path class="st0" d="M1166,3659c3-24,13-80,21-124s19-103,24-132c5-28,15-69,22-90l12-38l145-37c175-45,425-91,865-158
		c689-106,927-163,1289-306c392-156,655-305,1183-676c285-199,524-351,736-467l78-43l57,37c116,76,272,200,272,215c0,5-32,25-70,44
		c-183,94-437,257-945,607c-518,358-753,491-1155,653c-429,173-692,236-1475,356c-491,75-966,164-1048,196
		C1161,3702,1160,3698,1166,3659z"/>
	<path class="st0" d="M6807,3544c-68-37-353-140-552-199c-49-15-94-31-99-35c-4-5,50-42,120-84c172-102,413-221,424-210
		c17,19,92,264,123,409C6857,3577,6857,3571,6807,3544z"/>
	<path class="st0" d="M1294,3103c48-143,166-413,192-442c5-6,245-48,344-60c52-7,109-14,125-16c17-3,136-16,265-30
		c568-62,812-111,1140-233c330-122,520-226,1068-585c279-184,429-275,574-348l77-39l90,40c115,52,301,151,301,160c0,4-53,37-117,72
		c-154,85-359,217-613,393c-569,395-806,534-1140,670c-418,170-666,229-1460,351c-398,60-596,97-782,144c-42,11-81,20-87,20
		C1266,3200,1276,3156,1294,3103z"/>
	<path class="st0" d="M1711,2476c-45-45-62-69-57-81c8-21,132-184,190-250l43-50l107,102c58,56,153,141,211,189c57,49,103,90,101,91
		c-3,4-497,63-520,63C1780,2540,1746,2511,1711,2476z"/>
	<path class="st0" d="M2268,2355c-165-138-328-292-328-311c0-12,260-255,281-262c5-2,49,34,97,80c142,136,332,295,562,472l65,50
		l-60,12c-55,12-455,74-473,74C2408,2470,2343,2418,2268,2355z"/>
	<path class="st0" d="M2910,2273c-255-192-612-500-618-533c-1-9,23-33,55-55c104-73,288-185,303-185c33,0,416,316,674,555
		c156,145,163,153,145,159c-8,2-68,25-134,49c-102,39-287,97-305,97C3027,2360,2973,2321,2910,2273z"/>
	<path class="st0" d="M3440,2074c-237-218-468-416-615-529c-49-38-94-72-99-76c-16-14,216-118,391-174l83-27l77,69
		c159,140,649,577,671,598l24,22l-99,56c-140,79-295,157-313,157C3551,2170,3497,2127,3440,2074z"/>
	<path class="st0" d="M3903,1807c-249-218-618-549-620-555c-2-4,30-15,70-25c203-49,448-77,666-77l116,1l95,161
		c52,88,120,199,152,247c45,67,55,89,45,98c-24,24-381,253-394,253C4026,1910,3967,1864,3903,1807z"/>
	<path class="st0" d="M4422,1503c-79-122-202-328-202-339c0-19,303,25,495,72c94,24,124,33,233,71l43,15l-108,60
		c-59,33-169,98-245,144c-75,46-138,84-141,84S4461,1562,4422,1503z"/>
</g>
</svg>
