<?xml version="1.0"?>
<svg xmlns="http://www.w3.org/2000/svg" viewBox="0 0 50 50" enable-background="new 0 0 50 50">
    <path style="text-indent:0;text-align:start;line-height:normal;text-transform:none;block-progression:tb;-inkscape-font-specification:Bitstream Vera Sans" d="M 23 0 C 15.77381 0 10.445563 2.4968612 7 6.40625 C 3.554437 10.315639 2 15.559524 2 21 C 2 25.406349 3.376799 29.51398 5.6875 32.875 C 7.782309 35.921995 9 39.509722 9 43.1875 L 9 50 L 11 50 L 11 43.1875 C 11 39.102999 9.6421161 35.146356 7.375 31.8125 L 7.3125 31.71875 C 5.223201 28.67977 4 24.993651 4 21 C 4 15.940476 5.445563 11.184361 8.5 7.71875 C 11.554437 4.2531388 16.22619 2 23 2 C 29.802381 2 34.214979 3.9731109 37.125 7 C 40.035021 10.026889 41.466269 14.206294 42 18.71875 L 42.03125 18.9375 L 42.125 19.09375 L 46.84375 27.1875 L 46.8125 27.1875 C 47.062043 27.636677 46.938181 28.069066 46.5 28.3125 L 46.5 28.34375 L 42.5625 30.3125 L 42 30.59375 L 42 31.1875 L 42 36.59375 C 42 40.33561 38.915884 43.253076 35.1875 42.90625 L 35.15625 42.90625 L 32.0625 42.6875 L 31 42.625 L 31 43.6875 L 31 50 L 33 50 L 33 44.75 L 35 44.90625 C 35.0108 44.90725 35.02046 44.905288 35.03125 44.90625 C 39.888729 45.339217 44 41.441119 44 36.59375 L 44 31.8125 L 47.4375 30.09375 L 47.46875 30.09375 L 47.5 30.0625 C 48.861819 29.305934 49.312957 27.569573 48.5625 26.21875 L 48.5625 26.1875 L 43.9375 18.1875 C 43.343205 13.503708 41.810324 9.0032586 38.5625 5.625 C 35.247521 2.1768891 30.197619 0 23 0 z M 19.65625 6 L 19.5 6.84375 L 19 9.8125 C 18.53606 9.9520386 18.086604 10.147098 17.65625 10.375 L 15.1875 8.59375 L 14.5 8.09375 L 13.90625 8.6875 L 11.78125 10.78125 L 11.1875 11.40625 L 11.6875 12.09375 L 13.46875 14.5625 C 13.257081 14.969652 13.071853 15.419103 12.90625 15.90625 L 9.8125 16.53125 L 9 16.6875 L 9 17.5 L 9 20.5 L 9 21.34375 L 9.84375 21.5 L 12.8125 22 C 12.978103 22.487147 13.163331 22.936598 13.375 23.34375 L 11.59375 25.8125 L 11.09375 26.5 L 11.6875 27.09375 L 13.78125 29.21875 L 14.40625 29.8125 L 15.09375 29.3125 L 17.5625 27.53125 C 17.969652 27.742919 18.419103 27.928147 18.90625 28.09375 L 19.40625 31.0625 L 19.5625 31.90625 L 20.40625 31.90625 L 23.40625 31.90625 L 24.25 31.90625 L 24.375 31.0625 L 24.90625 28 C 25.374407 27.832307 25.822285 27.646991 26.25 27.4375 L 28.8125 29.21875 L 29.5 29.6875 L 30.09375 29.09375 L 32.21875 27 L 32.8125 26.40625 L 32.3125 25.71875 L 30.53125 23.25 C 30.738713 22.850938 30.92993 22.41339 31.09375 21.9375 L 34.125 21.5 L 35 21.375 L 35 20.5 L 35 17.5 L 35 16.65625 L 34.15625 16.5 L 31.09375 16 C 30.948775 15.546156 30.765792 15.085485 30.53125 14.625 L 32.3125 12.0625 L 32.8125 11.375 L 32.21875 10.78125 L 30.09375 8.6875 L 29.5 8.09375 L 28.8125 8.59375 L 26.34375 10.375 C 25.936598 10.163331 25.487147 9.9781028 25 9.8125 L 24.5 6.84375 L 24.34375 6 L 23.5 6 L 20.5 6 L 19.65625 6 z M 21.34375 8 L 22.65625 8 L 23.125 10.65625 L 23.21875 11.34375 L 23.875 11.46875 C 24.621873 11.634722 25.33562 11.995354 26 12.375 L 26.5625 12.6875 L 27.09375 12.3125 L 29.3125 10.71875 L 30.1875 11.625 L 28.59375 13.9375 L 28.1875 14.46875 L 28.5625 15.03125 C 28.99898 15.729617 29.256522 16.43234 29.4375 17.15625 L 29.59375 17.78125 L 30.25 17.875 L 33 18.34375 L 33 19.625 L 30.25 20 L 29.5625 20.09375 L 29.4375 20.78125 C 29.271528 21.528123 28.910896 22.24187 28.53125 22.90625 L 28.21875 23.46875 L 28.59375 24 L 30.1875 26.1875 L 29.28125 27.09375 L 26.96875 25.46875 L 26.5 25.125 L 25.9375 25.40625 C 25.1375 25.80625 24.397821 26.181795 23.75 26.34375 L 23.125 26.5 L 23 27.125 L 22.53125 29.90625 L 21.25 29.90625 L 20.78125 27.21875 L 20.6875 26.5625 L 20.03125 26.4375 C 19.284377 26.271528 18.57063 25.910896 17.90625 25.53125 L 17.34375 25.21875 L 16.8125 25.59375 L 14.625 27.1875 L 13.71875 26.3125 L 15.3125 24.09375 L 15.6875 23.5625 L 15.375 23 C 14.995354 22.33562 14.634722 21.621873 14.46875 20.875 L 14.34375 20.21875 L 13.65625 20.125 L 11 19.65625 L 11 18.3125 L 13.78125 17.78125 L 14.4375 17.65625 L 14.5625 17.03125 C 14.728472 16.284377 15.089104 15.57063 15.46875 14.90625 L 15.78125 14.34375 L 15.40625 13.8125 L 13.8125 11.625 L 14.6875 10.71875 L 16.90625 12.3125 L 17.5 12.71875 L 18.09375 12.3125 C 18.654462 11.911991 19.30922 11.650034 20.125 11.46875 L 20.78125 11.34375 L 20.875 10.65625 L 21.34375 8 z M 22 14 C 19.254545 14 17 16.254545 17 19 C 17 21.745455 19.254545 24 22 24 C 24.745455 24 27 21.745455 27 19 C 27 16.254545 24.745455 14 22 14 z M 22 16 C 23.654545 16 25 17.345455 25 19 C 25 20.654545 23.654545 22 22 22 C 20.345455 22 19 20.654545 19 19 C 19 17.345455 20.345455 16 22 16 z" overflow="visible" enable-background="accumulate" font-family="Bitstream Vera Sans"/>
</svg>
